<svg width="79" height="87" viewBox="0 0 79 87" fill="none" xmlns="http://www.w3.org/2000/svg">
<path d="M36.3223 21.5339C36.3223 21.5339 9.79635 21.6639 10.9519 3.7168V2.33826C10.9519 2.33826 7.24881 2.93649 6.46091 3.84685C4.43864 6.16177 4.9639 12.1441 8.9034 15.8896C12.6156 19.0556 17.0797 21.2347 21.8761 22.2221C26.6725 23.2094 31.6437 22.9726 36.3223 21.5339Z" fill="#0F6BB7"/>
<path d="M39.3948 19.557C39.3948 19.557 34.4048 23.1724 29.047 11.4678C24.057 0.335369 12.5274 -3.67022 6.40808 3.84676C6.40808 3.84676 12.9739 2.33816 16.4669 5.40738C22.954 11.1296 22.8752 19.1148 29.8612 22.2881C36.8472 25.4613 39.3948 19.557 39.3948 19.557Z" fill="#1D90FF"/>
<path d="M43.5972 21.5339C43.5972 21.5339 70.1494 21.6639 68.9938 3.7168V2.33826C68.9938 2.33826 72.6969 2.93649 73.4585 3.84686C75.4808 6.16177 74.9818 12.1441 71.0423 15.8896C67.3199 19.0471 62.8514 21.2205 58.0527 22.2073C53.254 23.1942 48.2811 22.9625 43.5972 21.5339Z" fill="#0F6BB7"/>
<path d="M40.4714 19.557C40.4714 19.557 45.4615 23.1724 50.7929 11.4678C55.888 0.335369 67.3913 -3.67022 73.5369 3.84676C73.5369 3.84676 66.9974 2.33816 63.5043 5.40738C57.0173 11.1296 57.0961 19.1148 50.1101 22.2881C43.124 25.4613 40.4714 19.557 40.4714 19.557Z" fill="#1D90FF"/>
<path d="M43.5971 20.9356C43.6023 21.6529 43.392 22.3555 42.9928 22.954C42.5937 23.5525 42.0238 24.0199 41.3557 24.2968C40.6876 24.5737 39.9514 24.6475 39.2408 24.5088C38.5303 24.3701 37.8774 24.0252 37.3653 23.5181C36.8531 23.0109 36.5049 22.3643 36.3649 21.6605C36.2249 20.9568 36.2994 20.2277 36.5789 19.566C36.8585 18.9043 37.3305 18.34 37.9348 17.9447C38.5392 17.5494 39.2486 17.3411 39.9728 17.3462C40.934 17.3462 41.8559 17.7244 42.5356 18.3975C43.2153 19.0707 43.5971 19.9837 43.5971 20.9356Z" fill="#0F6BB7"/>
<path d="M5.59413 23.6147H73.406V82.528C73.406 83.5559 72.9937 84.5416 72.2598 85.2684C71.5259 85.9953 70.5306 86.4036 69.4927 86.4036H9.4811C8.44325 86.4036 7.4479 85.9953 6.71403 85.2684C5.98016 84.5416 5.56787 83.5559 5.56787 82.528V23.6147H5.59413Z" fill="#E8F0F1"/>
<path opacity="0.7" d="M73.4062 67.572V53.8126L5.59441 53.8126V67.572H73.4062Z" fill="#1D90FF"/>
<path d="M3.93949 20.8056H75.0605C76.1053 20.8056 77.1074 21.2167 77.8462 21.9483C78.5849 22.68 79 23.6724 79 24.7071V40.1573H0V24.6551C0.0138104 23.6294 0.434952 22.6504 1.17226 21.9299C1.90957 21.2094 2.90371 20.8055 3.93949 20.8056Z" fill="#E8F0F1"/>
<path opacity="0.7" d="M46.4337 20.7535H32.5404V86.4036H46.4337V20.7535Z" fill="#1D90FF"/>
<path d="M46.4337 40.1832H32.5404V86.4035H46.4337V40.1832Z" fill="#1D90FF"/>
<path d="M46.4337 40.1832H32.5404V44.4229H46.4337V40.1832Z" fill="#0F6BB7"/>
<path opacity="0.1" d="M73.406 40.1832H46.4336V44.4229H73.406V40.1832Z" fill="#0F6BB7"/>
<path opacity="0.1" d="M32.5662 40.1832H5.59375V44.4229H32.5662V40.1832Z" fill="#0F6BB7"/>
</svg>
