<svg width="18" height="18" viewBox="0 0 18 18" fill="none" xmlns="http://www.w3.org/2000/svg">
<path fill-rule="evenodd" clip-rule="evenodd" d="M9 18C4.02944 18 0 13.9706 0 9C0 4.02944 4.02944 0 9 0C13.9706 0 18 4.02944 18 9C18 13.9706 13.9706 18 9 18ZM9.0001 16.3637C13.0669 16.3637 16.3637 13.0669 16.3637 9.0001C16.3637 4.93328 13.0669 1.63647 9.0001 1.63647C4.93328 1.63647 1.63647 4.93328 1.63647 9.0001C1.63647 13.0669 4.93328 16.3637 9.0001 16.3637ZM12.2727 6.54554C11.9532 6.22602 11.4351 6.22602 11.1156 6.54554L8.07072 9.59044C7.6802 9.98096 7.04703 9.98096 6.65651 9.59044L6.06615 9.00008C5.74663 8.68056 5.22859 8.68056 4.90907 9.00008C4.58955 9.3196 4.58955 9.83764 4.90907 10.1572L6.65651 11.9046C7.04703 12.2951 7.6802 12.2951 8.07072 11.9046L12.2727 7.70262C12.5922 7.3831 12.5922 6.86506 12.2727 6.54554Z" fill="#1E90FF" fill-opacity="0.8"/>
</svg>
