<svg width="15" height="15" viewBox="0 0 15 15" fill="none" xmlns="http://www.w3.org/2000/svg">
<path d="M3.75 4.5C3.75 4.69891 3.82902 4.88968 3.96967 5.03033C4.11032 5.17098 4.30109 5.25 4.5 5.25H10.5C10.6989 5.25 10.8897 5.17098 11.0303 5.03033C11.171 4.88968 11.25 4.69891 11.25 4.5C11.25 4.30109 11.171 4.11032 11.0303 3.96967C10.8897 3.82902 10.6989 3.75 10.5 3.75H4.5C4.30109 3.75 4.11032 3.82902 3.96967 3.96967C3.82902 4.11032 3.75 4.30109 3.75 4.5ZM3.75 7.5C3.75 7.69891 3.82902 7.88968 3.96967 8.03033C4.11032 8.17098 4.30109 8.25 4.5 8.25H10.5C10.6989 8.25 10.8897 8.17098 11.0303 8.03033C11.171 7.88968 11.25 7.69891 11.25 7.5C11.25 7.30109 11.171 7.11032 11.0303 6.96967C10.8897 6.82902 10.6989 6.75 10.5 6.75H4.5C4.30109 6.75 4.11032 6.82902 3.96967 6.96967C3.82902 7.11032 3.75 7.30109 3.75 7.5ZM13.5 0H1.5C1.10218 0 0.720644 0.158035 0.43934 0.43934C0.158035 0.720644 0 1.10218 0 1.5L0 13.5C0 13.8978 0.158035 14.2794 0.43934 14.5607C0.720644 14.842 1.10218 15 1.5 15H7.5C7.69891 15 7.88968 14.921 8.03033 14.7803C8.17098 14.6397 8.25 14.4489 8.25 14.25C8.25 14.0511 8.17098 13.8603 8.03033 13.7197C7.88968 13.579 7.69891 13.5 7.5 13.5H1.5V1.5H13.5V7.5C13.5 7.69891 13.579 7.88968 13.7197 8.03033C13.8603 8.17098 14.0511 8.25 14.25 8.25C14.4489 8.25 14.6397 8.17098 14.7803 8.03033C14.921 7.88968 15 7.69891 15 7.5V1.5C15 1.10218 14.842 0.720644 14.5607 0.43934C14.2794 0.158035 13.8978 0 13.5 0V0ZM3.75 10.5C3.75 10.6989 3.82902 10.8897 3.96967 11.0303C4.11032 11.171 4.30109 11.25 4.5 11.25H7.5C7.69891 11.25 7.88968 11.171 8.03033 11.0303C8.17098 10.8897 8.25 10.6989 8.25 10.5C8.25 10.3011 8.17098 10.1103 8.03033 9.96967C7.88968 9.82902 7.69891 9.75 7.5 9.75H4.5C4.30109 9.75 4.11032 9.82902 3.96967 9.96967C3.82902 10.1103 3.75 10.3011 3.75 10.5Z" fill="#1E90FF"/>
<path d="M13.7777 10.7174L11.2502 13.2824L10.0877 12.1499C10.0226 12.0823 9.94454 12.0285 9.8582 11.9918C9.77186 11.9551 9.67899 11.9361 9.58516 11.9361C9.49133 11.9361 9.39846 11.9551 9.31212 11.9918C9.22578 12.0285 9.14773 12.0823 9.08266 12.1499C9.01506 12.215 8.96129 12.293 8.92456 12.3793C8.88783 12.4657 8.8689 12.5586 8.8689 12.6524C8.8689 12.7462 8.88783 12.8391 8.92456 12.9254C8.96129 13.0118 9.01506 13.0898 9.08266 13.1549L10.7177 14.7974C10.8555 14.9218 11.0345 14.9906 11.2202 14.9906C11.4058 14.9906 11.5848 14.9218 11.7227 14.7974L14.7902 11.7299C14.9166 11.5916 14.9868 11.411 14.9868 11.2236C14.9868 11.0362 14.9166 10.8556 14.7902 10.7174C14.6519 10.5909 14.4713 10.5208 14.2839 10.5208C14.0965 10.5208 13.9159 10.5909 13.7777 10.7174Z" fill="#1E90FF"/>
</svg>
