<svg xmlns="http://www.w3.org/2000/svg">
    <symbol viewBox="0 0 42 36" id="intro-test_1" fill="none">
        
        
        <path d="M41.1967 12.8184L37.8765 18.0387C37.7339 14.5493 36.6105 11.1784 34.6434 8.33741C32.6764 5.49644 29.9508 3.30843 26.7995 2.04053C23.6482 0.772638 20.2076 0.479734 16.8978 1.19759C13.588 1.91544 10.5522 3.61298 8.16113 6.08293" stroke="white" stroke-width="1.5" stroke-linecap="round" stroke-linejoin="round"/>
        <path d="M32.9016 14.5327L37.8765 18.0387" stroke="white" stroke-width="1.5" stroke-linecap="round" stroke-linejoin="round"/>
        <path d="M0.803223 23.1816L4.11803 17.9557C4.26492 21.443 5.3911 24.8108 7.3593 27.6486C9.32749 30.4863 12.0527 32.6715 15.2026 33.9377C18.3525 35.2039 21.7912 35.4964 25.0993 34.7795C28.4074 34.0626 31.4421 32.3674 33.8334 29.9004" stroke="white" stroke-width="1.5" stroke-linecap="round" stroke-linejoin="round"/>
        <path d="M9.0984 21.4673L4.11816 17.9557" stroke="white" stroke-width="1.5" stroke-linecap="round" stroke-linejoin="round"/>
        <path d="M10.887 27.6498H31.2363" stroke="white" stroke-width="1.5" stroke-linecap="round" stroke-linejoin="round"/>
        <path d="M22.668 17.9723V24.0553H20.526V17.9723H22.668ZM22.668 16.3134H20.526C20.0999 16.3134 19.6913 16.4881 19.39 16.7993C19.0887 17.1104 18.9194 17.5324 18.9194 17.9723V24.0553C18.9194 24.4953 19.0887 24.9172 19.39 25.2284C19.6913 25.5395 20.0999 25.7143 20.526 25.7143H22.668C23.0941 25.7143 23.5027 25.5395 23.804 25.2284C24.1053 24.9172 24.2745 24.4953 24.2745 24.0553V17.9723C24.2745 17.5324 24.1053 17.1104 23.804 16.7993C23.5027 16.4881 23.0941 16.3134 22.668 16.3134Z" fill="white"/>
        <path d="M29.0943 14.1014V24.0553H26.9522V14.1014H29.0943ZM29.0943 12.4424H26.9522C26.5262 12.4424 26.1175 12.6172 25.8162 12.9283C25.515 13.2394 25.3457 13.6614 25.3457 14.1014V24.0553C25.3457 24.4953 25.515 24.9172 25.8162 25.2284C26.1175 25.5395 26.5262 25.7143 26.9522 25.7143H29.0943C29.5203 25.7143 29.929 25.5395 30.2303 25.2284C30.5315 24.9172 30.7008 24.4953 30.7008 24.0553V14.1014C30.7008 13.6614 30.5315 13.2394 30.2303 12.9283C29.929 12.6172 29.5203 12.4424 29.0943 12.4424Z" fill="white"/>
        <path d="M16.242 9.12444V24.0553H14.0999V9.12444H16.242ZM16.242 7.46545H14.0999C13.6739 7.46545 13.2652 7.64024 12.9639 7.95136C12.6627 8.26248 12.4934 8.68445 12.4934 9.12444V24.0553C12.4934 24.4953 12.6627 24.9173 12.9639 25.2284C13.2652 25.5395 13.6739 25.7143 14.0999 25.7143H16.242C16.6681 25.7143 17.0767 25.5395 17.378 25.2284C17.6792 24.9173 17.8485 24.4953 17.8485 24.0553V9.12444C17.8485 8.68445 17.6792 8.26248 17.378 7.95136C17.0767 7.64024 16.6681 7.46545 16.242 7.46545Z" fill="white"/>

    </symbol>

    <symbol viewBox="0 0 35 35" id="intro-test_2" fill="none">
        
        <path d="M17.9583 13.2625V33.366H1.65667V13.2625H17.9583ZM17.9583 11.6285H1.65667C1.2173 11.6285 0.795915 11.8007 0.485229 12.1071C0.174542 12.4136 0 12.8292 0 13.2625L0 33.366C0 33.7994 0.174542 34.215 0.485229 34.5214C0.795915 34.8278 1.2173 35 1.65667 35H17.9583C18.3977 35 18.8191 34.8278 19.1298 34.5214C19.4405 34.215 19.615 33.7994 19.615 33.366V13.2625C19.615 12.8292 19.4405 12.4136 19.1298 12.1071C18.8191 11.8007 18.3977 11.6285 17.9583 11.6285Z" fill="white"/>
        <path d="M15.4125 15.7952V16.8028H4.20233V15.7952H15.4125ZM15.4125 14.1612H4.20233C3.76295 14.1612 3.34157 14.3333 3.03088 14.6398C2.7202 14.9462 2.54565 15.3618 2.54565 15.7952V16.8028C2.54565 17.2362 2.7202 17.6518 3.03088 17.9582C3.34157 18.2646 3.76295 18.4368 4.20233 18.4368H15.4125C15.8519 18.4368 16.2732 18.2646 16.5839 17.9582C16.8946 17.6518 17.0692 17.2362 17.0692 16.8028V15.7952C17.0692 15.3618 16.8946 14.9462 16.5839 14.6398C16.2732 14.3333 15.8519 14.1612 15.4125 14.1612Z" fill="white"/>
        <path d="M5.22394 20.8007V21.7865H4.20233V20.8007H5.22394ZM5.22394 19.1667H4.20233C3.76295 19.1667 3.34157 19.3388 3.03088 19.6453C2.7202 19.9517 2.54565 20.3673 2.54565 20.8007V21.7865C2.54565 22.2199 2.7202 22.6355 3.03088 22.9419C3.34157 23.2484 3.76295 23.4205 4.20233 23.4205H5.22394C5.66332 23.4205 6.0847 23.2484 6.39539 22.9419C6.70608 22.6355 6.88062 22.2199 6.88062 21.7865V20.8007C6.88062 20.3673 6.70608 19.9517 6.39539 19.6453C6.0847 19.3388 5.66332 19.1667 5.22394 19.1667Z" fill="white"/>
        <path d="M10.3156 20.8007V21.7865H9.2995V20.8007H10.3156ZM10.3156 19.1667H9.2995C8.86012 19.1667 8.43874 19.3388 8.12805 19.6453C7.81736 19.9517 7.64282 20.3673 7.64282 20.8007V21.7865C7.64282 22.2199 7.81736 22.6355 8.12805 22.9419C8.43874 23.2484 8.86012 23.4205 9.2995 23.4205H10.3156C10.755 23.4205 11.1763 23.2484 11.487 22.9419C11.7977 22.6355 11.9723 22.2199 11.9723 21.7865V20.8007C11.9723 20.3673 11.7977 19.9517 11.487 19.6453C11.1763 19.3388 10.755 19.1667 10.3156 19.1667Z" fill="white"/>
        <path d="M15.4125 20.8007V21.7865H14.3964V20.8007H15.4125ZM15.4125 19.1667H14.3964C13.957 19.1667 13.5357 19.3388 13.225 19.6453C12.9143 19.9517 12.7397 20.3673 12.7397 20.8007V21.7865C12.7397 22.2199 12.9143 22.6355 13.225 22.9419C13.5357 23.2484 13.957 23.4205 14.3964 23.4205H15.4125C15.8519 23.4205 16.2733 23.2484 16.584 22.9419C16.8946 22.6355 17.0692 22.2199 17.0692 21.7865V20.8007C17.0692 20.3673 16.8946 19.9517 16.584 19.6453C16.2733 19.3388 15.8519 19.1667 15.4125 19.1667Z" fill="white"/>
        <path d="M5.22394 25.3214V26.329H4.20233V25.3214H5.22394ZM5.22394 23.6874H4.20233C3.76295 23.6874 3.34157 23.8595 3.03088 24.166C2.7202 24.4724 2.54565 24.888 2.54565 25.3214V26.329C2.54565 26.7623 2.7202 27.178 3.03088 27.4844C3.34157 27.7908 3.76295 27.963 4.20233 27.963H5.22394C5.66332 27.963 6.0847 27.7908 6.39539 27.4844C6.70608 27.178 6.88062 26.7623 6.88062 26.329V25.3214C6.88062 24.888 6.70608 24.4724 6.39539 24.166C6.0847 23.8595 5.66332 23.6874 5.22394 23.6874Z" fill="white"/>
        <path d="M10.3156 25.3214V26.329H9.2995V25.3214H10.3156ZM10.3156 23.6874H9.2995C8.86012 23.6874 8.43874 23.8595 8.12805 24.166C7.81736 24.4724 7.64282 24.888 7.64282 25.3214V26.329C7.64282 26.7623 7.81736 27.178 8.12805 27.4844C8.43874 27.7908 8.86012 27.963 9.2995 27.963H10.3156C10.755 27.963 11.1763 27.7908 11.487 27.4844C11.7977 27.178 11.9723 26.7623 11.9723 26.329V25.3214C11.9723 24.888 11.7977 24.4724 11.487 24.166C11.1763 23.8595 10.755 23.6874 10.3156 23.6874Z" fill="white"/>
        <path d="M15.4125 25.3214V26.329H14.3964V25.3214H15.4125ZM15.4125 23.6874H14.3964C13.957 23.6874 13.5357 23.8595 13.225 24.166C12.9143 24.4724 12.7397 24.888 12.7397 25.3214V26.329C12.7397 26.7623 12.9143 27.178 13.225 27.4844C13.5357 27.7908 13.957 27.963 14.3964 27.963H15.4125C15.8519 27.963 16.2733 27.7908 16.584 27.4844C16.8946 27.178 17.0692 26.7623 17.0692 26.329V25.3214C17.0692 24.888 16.8946 24.4724 16.584 24.166C16.2733 23.8595 15.8519 23.6874 15.4125 23.6874Z" fill="white"/>
        <path d="M5.22394 29.8475V30.8497H4.20233V29.8475H5.22394ZM5.22394 28.2135H4.20233C3.76295 28.2135 3.34157 28.3857 3.03088 28.6921C2.7202 28.9985 2.54565 29.4141 2.54565 29.8475V30.8497C2.54565 31.283 2.7202 31.6986 3.03088 32.0051C3.34157 32.3115 3.76295 32.4837 4.20233 32.4837H5.22394C5.66332 32.4837 6.0847 32.3115 6.39539 32.0051C6.70608 31.6986 6.88062 31.283 6.88062 30.8497V29.8475C6.88062 29.4141 6.70608 28.9985 6.39539 28.6921C6.0847 28.3857 5.66332 28.2135 5.22394 28.2135Z" fill="white"/>
        <path d="M10.3156 29.8475V30.8497H9.2995V29.8475H10.3156ZM10.3156 28.2135H9.2995C8.86012 28.2135 8.43874 28.3857 8.12805 28.6921C7.81736 28.9985 7.64282 29.4141 7.64282 29.8475V30.8497C7.64282 31.283 7.81736 31.6986 8.12805 32.0051C8.43874 32.3115 8.86012 32.4837 9.2995 32.4837H10.3156C10.755 32.4837 11.1763 32.3115 11.487 32.0051C11.7977 31.6986 11.9723 31.283 11.9723 30.8497V29.8475C11.9723 29.4141 11.7977 28.9985 11.487 28.6921C11.1763 28.3857 10.755 28.2135 10.3156 28.2135Z" fill="white"/>
        <path d="M15.4125 29.8475V30.8497H14.3964V29.8475H15.4125ZM15.4125 28.2135H14.3964C13.957 28.2135 13.5357 28.3857 13.225 28.6921C12.9143 28.9985 12.7397 29.4141 12.7397 29.8475V30.8497C12.7397 31.283 12.9143 31.6986 13.225 32.0051C13.5357 32.3115 13.957 32.4837 14.3964 32.4837H15.4125C15.8519 32.4837 16.2733 32.3115 16.584 32.0051C16.8946 31.6986 17.0692 31.283 17.0692 30.8497V29.8475C17.0692 29.4141 16.8946 28.9985 16.584 28.6921C16.2733 28.3857 15.8519 28.2135 15.4125 28.2135Z" fill="white"/>
        <path d="M13.375 9.76037V2.39654C13.375 1.97762 13.5437 1.57587 13.8441 1.27965C14.1444 0.983431 14.5517 0.817018 14.9765 0.817018H27.2027C27.4789 0.816695 27.7505 0.887344 27.9906 1.02201C28.2308 1.15667 28.4312 1.3507 28.5722 1.58499L33.9454 7.89218C34.0955 8.1408 34.1738 8.42523 34.1718 8.71462V24.5098C34.1718 24.9287 34.0031 25.3305 33.7027 25.6267C33.4024 25.9229 32.9951 26.0893 32.5703 26.0893H21.9455" stroke="white" stroke-width="1.5" stroke-linecap="round" stroke-linejoin="round"/>
        <path d="M23.4309 15.2996C23.5936 15.2942 23.7542 15.3368 23.8922 15.422C24.0302 15.5072 24.1392 15.6311 24.2054 15.7779C24.2715 15.9246 24.2916 16.0875 24.2633 16.2456C24.235 16.4037 24.1594 16.5499 24.0463 16.6653C23.9331 16.7808 23.7876 16.8603 23.6284 16.8937C23.4691 16.9271 23.3034 16.9128 23.1524 16.8527C23.0015 16.7925 22.8722 16.6893 22.7811 16.5562C22.69 16.4231 22.6413 16.2662 22.6412 16.1057C22.6412 15.8928 22.7265 15.6886 22.8786 15.5376C23.0307 15.3866 23.2372 15.301 23.453 15.2996H23.4309ZM23.453 13.6656C22.9637 13.6656 22.4854 13.8087 22.0785 14.0768C21.6717 14.3449 21.3546 14.726 21.1673 15.1719C20.9801 15.6178 20.9311 16.1084 21.0265 16.5817C21.122 17.055 21.3576 17.4898 21.7036 17.8311C22.0496 18.1723 22.4904 18.4047 22.9703 18.4989C23.4502 18.593 23.9477 18.5447 24.3997 18.36C24.8518 18.1753 25.2382 17.8626 25.51 17.4613C25.7818 17.06 25.9269 16.5883 25.9269 16.1057C25.9269 15.4585 25.6663 14.8379 25.2023 14.3803C24.7384 13.9227 24.1091 13.6656 23.453 13.6656Z" fill="white"/>
        <path d="M29.1299 20.9205C29.2918 20.9205 29.45 20.9679 29.5845 21.0567C29.719 21.1456 29.8238 21.2718 29.8855 21.4194C29.9472 21.567 29.963 21.7294 29.931 21.8859C29.899 22.0424 29.8207 22.186 29.7058 22.2985C29.591 22.411 29.4448 22.4874 29.2859 22.5179C29.127 22.5483 28.9625 22.5316 28.8133 22.4698C28.664 22.4079 28.5368 22.3037 28.4476 22.1705C28.3585 22.0372 28.3115 21.8808 28.3126 21.7211C28.3126 21.6155 28.3338 21.511 28.3749 21.4135C28.416 21.316 28.4763 21.2275 28.5523 21.1531C28.6283 21.0786 28.7184 21.0198 28.8175 20.9799C28.9167 20.94 29.0228 20.9198 29.1299 20.9205ZM29.1299 19.2865C28.6401 19.2854 28.161 19.4278 27.7533 19.6955C27.3457 19.9632 27.0277 20.3442 26.8398 20.7903C26.6518 21.2364 26.6024 21.7275 26.6977 22.2013C26.7929 22.6751 27.0287 23.1104 27.375 23.452C27.7213 23.7936 28.1626 24.0261 28.6431 24.12C29.1235 24.214 29.6214 24.1652 30.0737 23.9799C30.5259 23.7945 30.9123 23.4809 31.1837 23.0788C31.4551 22.6767 31.5994 22.2042 31.5983 21.7211C31.5969 21.0759 31.3363 20.4575 30.8737 20.0012C30.4111 19.5449 29.7841 19.2879 29.1299 19.2865Z" fill="white"/>
        <path d="M30.3503 14.902L22.6191 22.5272" stroke="white" stroke-width="1.5" stroke-linecap="round" stroke-linejoin="round"/>

    </symbol>
    

    <symbol viewBox="0 0 30 33" id="intro-test_3" fill="none">
        
        
        <path d="M20.4257 16.9455C21.3673 18.7914 21.7419 20.8779 21.5016 22.939C21.2614 25.0001 20.4172 26.9425 19.0766 28.5187C17.7361 30.0948 15.9599 31.2333 13.9745 31.789C11.9891 32.3447 9.88428 32.2925 7.9284 31.6391C5.97252 30.9856 4.25413 29.7605 2.99223 28.1199C1.73033 26.4792 0.982071 24.4973 0.842817 22.4268C0.703563 20.3563 1.17962 18.2909 2.21032 16.4939C3.24102 14.6969 4.77968 13.2496 6.6302 12.3365" stroke="white" stroke-width="1.5" stroke-miterlimit="10" stroke-linecap="round"/>
        <path d="M16.4387 17.765C17.2377 18.8406 17.6918 20.1362 17.7402 21.4786C17.7887 22.821 17.4293 24.1463 16.71 25.2775C15.9907 26.4087 14.9458 27.292 13.7149 27.8093C12.4839 28.3267 11.1255 28.4534 9.8211 28.1727C8.51671 27.8919 7.32845 27.217 6.41502 26.2381C5.5016 25.2592 4.90652 24.023 4.70927 22.6945C4.51202 21.3659 4.72199 20.0085 5.31113 18.8033C5.90027 17.5982 6.84054 16.6027 8.00632 15.95" stroke="white" stroke-width="1.5" stroke-miterlimit="10" stroke-linecap="round"/>
        <path d="M13.3367 20.02C13.7205 20.504 13.9286 21.1056 13.9265 21.725C13.9266 22.1832 13.8131 22.6343 13.5962 23.0371C13.3792 23.4399 13.0658 23.7817 12.6843 24.0315C12.3028 24.2813 11.8654 24.4311 11.4118 24.4674C10.9582 24.5036 10.5028 24.4252 10.087 24.2391C9.6712 24.053 9.30813 23.7653 9.03082 23.402C8.75351 23.0387 8.57074 22.6114 8.49912 22.1588C8.42751 21.7063 8.46931 21.2429 8.62074 20.8108C8.77217 20.3787 9.02843 19.9915 9.36622 19.6845" stroke="white" stroke-width="1.5" stroke-miterlimit="10" stroke-linecap="round"/>
        <path d="M11.1959 22.55C11.6484 22.55 12.0151 22.1807 12.0151 21.725C12.0151 21.2694 11.6484 20.9 11.1959 20.9C10.7435 20.9 10.3767 21.2694 10.3767 21.725C10.3767 22.1807 10.7435 22.55 11.1959 22.55Z" fill="white"/>
        <path d="M11.1958 0.825012V21.725" stroke="white" stroke-width="1.5" stroke-linecap="round" stroke-linejoin="round"/>
        <path d="M27.3616 2.47503L24.5763 7.42503L27.307 12.925H12.0151V2.47503H27.3616ZM27.3616 0.825025H12.0151C11.5806 0.825025 11.1639 0.998864 10.8566 1.3083C10.5493 1.61773 10.3767 2.03742 10.3767 2.47503V12.925C10.3767 13.3626 10.5493 13.7823 10.8566 14.0918C11.1639 14.4012 11.5806 14.575 12.0151 14.575H27.307C27.586 14.5746 27.8603 14.5025 28.1039 14.3655C28.3475 14.2284 28.5522 14.031 28.6988 13.792C28.8454 13.5529 28.929 13.2801 28.9415 12.9994C28.9541 12.7187 28.8953 12.4394 28.7707 12.188L26.4332 7.47453L28.7871 3.30003C28.9311 3.04871 29.0069 2.76358 29.0066 2.47338C29.0063 2.18319 28.93 1.8982 28.7854 1.64718C28.6409 1.39615 28.4331 1.18796 28.1831 1.04362C27.9332 0.89927 27.6498 0.823871 27.3616 0.825025Z" fill="white"/>



    </symbol>

    <symbol viewBox="0 0 78 78" fill="none" id="help-icon">
        
        <path d="M54.0049 34.3221V48.4824C54.0053 48.8767 53.9279 49.2673 53.7772 49.6317C53.6264 49.9961 53.4053 50.3272 53.1264 50.606C52.8476 50.8849 52.5165 51.106 52.1521 51.2567C51.7877 51.4075 51.3972 51.4849 51.0028 51.4845H41.6855C41.6717 51.4847 41.6582 51.4809 41.6465 51.4735C41.6349 51.4662 41.6256 51.4556 41.6197 51.4431C41.6139 51.4306 41.6119 51.4167 41.6138 51.4031C41.6157 51.3894 41.6215 51.3766 41.6305 51.3662C42.789 49.905 43.5787 48.4824 46.501 48.4824H49.1977C49.6772 48.4824 50.137 48.2919 50.4761 47.9529C50.8151 47.6138 51.0056 47.154 51.0056 46.6745V35.4558C51.0052 35.1 50.926 34.7486 50.7738 34.427C50.6215 34.1054 50.4 33.8215 50.125 33.5956L40.1391 25.401C39.8172 25.1355 39.413 24.9904 38.9957 24.9904C38.5785 24.9904 38.1743 25.1355 37.8524 25.401L27.8692 33.5956C27.5942 33.8215 27.3726 34.1054 27.2204 34.427C27.0682 34.7486 26.989 35.1 26.9886 35.4558V46.6745C26.9886 47.154 27.1791 47.6138 27.5181 47.9529C27.8572 48.2919 28.317 48.4824 28.7965 48.4824H31.4932C34.4155 48.4824 35.2025 49.905 36.3637 51.3662C36.3727 51.3766 36.3785 51.3894 36.3804 51.4031C36.3823 51.4167 36.3803 51.4306 36.3745 51.4431C36.3686 51.4556 36.3593 51.4662 36.3477 51.4735C36.336 51.4809 36.3225 51.4847 36.3087 51.4845H26.9914C26.5969 51.4845 26.2063 51.4068 25.8419 51.2557C25.4775 51.1047 25.1464 50.8833 24.8676 50.6042C24.5888 50.3252 24.3677 49.9939 24.217 49.6293C24.0663 49.2648 23.9889 48.8741 23.9893 48.4796V34.3221C23.9896 33.8777 24.0884 33.4388 24.2788 33.0372C24.4691 32.6356 24.7462 32.2813 25.0899 31.9996L37.0736 22.154C37.6159 21.7067 38.2969 21.462 38.9998 21.462C39.7028 21.462 40.3838 21.7067 40.926 22.154L52.9125 31.9996C53.2548 32.2821 53.5303 32.6368 53.7192 33.0384C53.908 33.4399 54.0056 33.8783 54.0049 34.3221Z" fill="#1D91FF"/>
        <path d="M44.9931 38.6698C44.9559 37.4445 44.5439 36.26 43.8128 35.276C43.0817 34.292 42.0665 33.5557 40.9041 33.1664L40.4335 33.0288C40.2612 32.985 40.0867 32.9501 39.9107 32.9243C39.8089 32.9077 39.7098 32.8967 39.608 32.8857C39.1999 32.8454 38.7888 32.8454 38.3807 32.8857C38.2789 32.8857 38.1771 32.9077 38.0781 32.9243C37.9012 32.9501 37.7258 32.985 37.5525 33.0288L37.0819 33.1664C35.9201 33.556 34.9057 34.2924 34.1755 35.2765C33.4453 36.2606 33.0345 37.445 32.9984 38.6698C32.9984 38.7744 32.9984 38.8817 32.9984 38.9863C32.9957 39.0394 32.9957 39.0927 32.9984 39.1459C33.0207 40.3368 33.3887 41.4955 34.0578 42.481L38.8705 48.8429C38.8849 48.8617 38.9035 48.877 38.9247 48.8875C38.9459 48.898 38.9693 48.9035 38.993 48.9035C39.0167 48.9035 39.0401 48.898 39.0613 48.8875C39.0825 48.877 39.1011 48.8617 39.1154 48.8429L43.9337 42.481C44.6028 41.4955 44.9708 40.3368 44.9931 39.1459C44.9959 39.0927 44.9959 39.0394 44.9931 38.9863C44.9986 38.8817 44.9986 38.7744 44.9931 38.6698ZM41.9965 39.0991C41.9834 39.6944 41.799 40.2734 41.4654 40.7666L41.2673 41.028L39.0659 43.9394C39.0582 43.9477 39.0488 43.9543 39.0384 43.9589C39.028 43.9634 39.0167 43.9658 39.0054 43.9658C38.994 43.9658 38.9828 43.9634 38.9724 43.9589C38.9619 43.9543 38.9526 43.9477 38.9448 43.9394L36.6994 41.0005L36.6802 40.9703L36.5591 40.8052L36.5261 40.7639C36.191 40.2715 36.0074 39.6918 35.9978 39.0963C35.9951 39.0698 35.9951 39.0431 35.9978 39.0165C35.995 38.9634 35.995 38.9101 35.9978 38.8569C36.014 38.244 36.2188 37.651 36.5841 37.1587C36.9495 36.6663 37.4577 36.2985 38.0395 36.1052C38.1161 36.0778 38.1942 36.0548 38.2734 36.0364C38.3638 36.0118 38.4557 35.9934 38.5486 35.9814L38.6972 35.9621C38.7996 35.9512 38.9024 35.9457 39.0054 35.9456C39.1074 35.9455 39.2094 35.951 39.3108 35.9621L39.4649 35.9814C39.5523 35.9936 39.6388 36.012 39.7236 36.0364C39.8034 36.0557 39.8832 36.0777 39.963 36.1052C40.5437 36.3007 41.0507 36.6691 41.4161 37.1609C41.7816 37.6528 41.9879 38.2445 42.0075 38.8569L41.9965 39.0991Z" fill="#1D91FF"/>
        <path d="M64.1698 29.4681H62.6591C61.9328 23.7042 59.1279 18.4035 54.7708 14.5609C50.4136 10.7183 44.8039 8.59804 38.9944 8.59804C33.1849 8.59804 27.5751 10.7183 23.218 14.5609C18.8609 18.4035 16.0559 23.7042 15.3297 29.4681H13.8245C12.1364 29.4703 10.5181 30.1418 9.32443 31.3355C8.13077 32.5291 7.45922 34.1474 7.45703 35.8355V45.1281C7.46212 46.8142 8.13496 48.4297 9.32831 49.621C10.5217 50.8123 12.1383 51.4823 13.8245 51.4845H18.8381C19.3767 51.4845 19.8932 51.2706 20.2741 50.8897C20.6549 50.5089 20.8689 49.9924 20.8689 49.4538V31.4988C20.8688 31.0643 20.7296 30.6413 20.4716 30.2917C20.2136 29.9421 19.8504 29.6843 19.4352 29.5561C20.1399 24.8716 22.5021 20.5954 26.0924 17.5048C29.6826 14.4143 34.2626 12.7145 38.9999 12.7145C43.7372 12.7145 48.3172 14.4143 51.9074 17.5048C55.4977 20.5954 57.8599 24.8716 58.5646 29.5561C58.1474 29.6821 57.7819 29.939 57.5222 30.2889C57.2625 30.6388 57.1224 31.0631 57.1227 31.4988V49.4538C57.1221 49.9266 57.2868 50.3848 57.5883 50.7491C57.8898 51.1134 58.3091 51.3609 58.7737 51.4487L58.793 56.4018C58.7915 57.7603 58.2512 59.0626 57.2907 60.0232C56.3301 60.9838 55.0277 61.5241 53.6693 61.5255H47.189C46.6752 60.0261 45.6847 58.736 44.3688 57.8524C43.0529 56.9688 41.484 56.5401 39.9016 56.6319C38.3193 56.7237 36.8104 57.3308 35.6056 58.3607C34.4007 59.3905 33.566 60.7865 33.229 62.3353C32.8919 63.884 33.0711 65.5006 33.7391 66.938C34.4071 68.3754 35.5272 69.5546 36.9284 70.2956C38.3295 71.0366 39.9347 71.2987 41.4988 71.0417C43.0628 70.7848 44.4998 70.0229 45.5902 68.8726C46.4739 67.955 47.0895 66.813 47.3706 65.5705H53.6775C56.1084 65.5669 58.4386 64.5998 60.1577 62.8812C61.8768 61.1626 62.8446 58.8327 62.849 56.4018V51.4845H64.1698C65.856 51.4823 67.4726 50.8123 68.666 49.621C69.8593 48.4297 70.5322 46.8142 70.5373 45.1281V35.8355C70.5351 34.1474 69.8635 32.5291 68.6699 31.3355C67.4762 30.1418 65.8579 29.4703 64.1698 29.4681ZM16.8046 47.4202H13.8245C13.5221 47.4232 13.2222 47.3659 12.9422 47.2519C12.6622 47.1379 12.4076 46.9694 12.1933 46.7561C11.979 46.5428 11.8092 46.289 11.6938 46.0095C11.5785 45.73 11.5198 45.4304 11.5213 45.1281V35.8355C11.5184 35.5323 11.5759 35.2314 11.6906 34.9507C11.8053 34.6699 11.9749 34.4148 12.1893 34.2004C12.4038 33.9859 12.6589 33.8164 12.9396 33.7017C13.2204 33.587 13.5212 33.5294 13.8245 33.5324H16.8046V47.4202ZM42.6707 66.0603C42.3563 66.383 41.98 66.639 41.5644 66.813C41.1489 66.987 40.7025 67.0754 40.2519 67.073C39.3698 67.0704 38.5234 66.7241 37.8924 66.1075C37.2615 65.491 36.8957 64.6528 36.8728 63.7709C36.8728 62.8926 37.2217 62.0503 37.8428 61.4292C38.4639 60.8081 39.3062 60.4592 40.1845 60.4592C41.0628 60.4592 41.9052 60.8081 42.5262 61.4292C43.1473 62.0503 43.4962 62.8926 43.4962 63.7709C43.4962 63.8012 43.4962 63.8314 43.4962 63.8617C43.5128 64.2664 43.4464 64.6703 43.3011 65.0484C43.1559 65.4265 42.9348 65.7709 42.6514 66.0603H42.6707ZM66.473 45.1281C66.4759 45.4313 66.4184 45.7322 66.3036 46.0129C66.1889 46.2937 66.0194 46.5488 65.805 46.7632C65.5905 46.9777 65.3354 47.1472 65.0547 47.2619C64.7739 47.3766 64.4731 47.4342 64.1698 47.4312H61.1897V33.5324H64.1698C64.4731 33.5294 64.7739 33.587 65.0547 33.7017C65.3354 33.8164 65.5905 33.9859 65.805 34.2004C66.0194 34.4148 66.1889 34.6699 66.3036 34.9507C66.4184 35.2314 66.4759 35.5323 66.473 35.8355V45.1281Z" fill="#1D91FF" stroke="white" stroke-width="0.5" stroke-miterlimit="10"/>
    </symbol>

    <symbol viewBox="0 0 18 12" fill="none" id="quiz-next">
        <path d="M1 5.25C0.585787 5.25 0.25 5.58579 0.25 6C0.25 6.41421 0.585786 6.75 1 6.75L1 5.25ZM17.5303 6.53033C17.8232 6.23744 17.8232 5.76257 17.5303 5.46967L12.7574 0.696701C12.4645 0.403808 11.9896 0.403808 11.6967 0.696701C11.4038 0.989594 11.4038 1.46447 11.6967 1.75736L15.9393 6L11.6967 10.2426C11.4038 10.5355 11.4038 11.0104 11.6967 11.3033C11.9896 11.5962 12.4645 11.5962 12.7574 11.3033L17.5303 6.53033ZM1 6.75L17 6.75L17 5.25L1 5.25L1 6.75Z" fill="white"/>

    </symbol>

    <symbol viewBox="0 0 18 12" fill="none" id="quiz-prev">
        <path d="M17 6.75C17.4142 6.75 17.75 6.41421 17.75 6C17.75 5.58579 17.4142 5.25 17 5.25V6.75ZM0.469669 5.46967C0.176777 5.76256 0.176777 6.23744 0.469669 6.53033L5.24264 11.3033C5.53553 11.5962 6.01041 11.5962 6.3033 11.3033C6.59619 11.0104 6.59619 10.5355 6.3033 10.2426L2.06066 6L6.3033 1.75736C6.59619 1.46447 6.59619 0.989593 6.3033 0.696699C6.01041 0.403806 5.53553 0.403806 5.24264 0.696699L0.469669 5.46967ZM17 5.25L1 5.25V6.75L17 6.75V5.25Z" fill="#373737"/>

    </symbol>

    <symbol viewBox="0 0 230 54" id="header-logo">
    
        <path d="M133.497 48.4472V53.9998H102.655V48.4472H105.365L115.142 26.9985H120.924L130.701 48.4472H133.497ZM118.014 33.7988L111.5 48.4472H124.529L118.014 33.7988Z"/>
        <path d="M150.169 26.9985C151.967 26.9855 153.747 27.3454 155.399 28.0557C156.996 28.7297 158.451 29.699 159.689 30.913C160.931 32.1269 161.929 33.5691 162.627 35.1608C163.344 36.8164 163.707 38.6041 163.693 40.4087C163.702 42.1736 163.364 43.9232 162.698 45.5573C162.033 47.1915 161.052 48.6784 159.812 49.933C158.597 51.166 157.157 52.1552 155.571 52.8474C153.924 53.5696 152.147 53.9457 150.349 53.9522C148.531 53.969 146.728 53.6124 145.052 52.9045C143.45 52.236 141.991 51.266 140.754 50.0473C139.514 48.8296 138.525 47.3798 137.843 45.7804C137.124 44.1251 136.758 42.3377 136.769 40.5325C136.76 38.7252 137.113 36.9345 137.805 35.2656C138.463 33.6616 139.433 32.2047 140.658 30.9796C141.893 29.7475 143.348 28.7589 144.948 28.0652C146.595 27.3503 148.373 26.987 150.169 26.9985ZM155.827 46.1518C156.566 45.4235 157.149 44.5517 157.539 43.5898C158.326 41.6145 158.326 39.4124 157.539 37.4371C157.136 36.46 156.533 35.5778 155.77 34.8465C155.038 34.1382 154.176 33.5787 153.231 33.1988C152.261 32.8208 151.229 32.6302 150.188 32.6369C149.138 32.6081 148.095 32.801 147.125 33.203C146.154 33.6051 145.28 34.2072 144.558 34.9703C143.827 35.6964 143.249 36.5609 142.855 37.5133C142.069 39.4755 142.069 41.6657 142.855 43.6279C143.261 44.5982 143.864 45.4738 144.624 46.1995C145.348 46.9321 146.212 47.5118 147.163 47.9043C148.13 48.2976 149.164 48.4951 150.207 48.4853C151.27 48.4751 152.322 48.2651 153.307 47.8662C154.265 47.4918 155.127 46.9058 155.827 46.1518Z"/>
        <path d="M169.37 53.9998V26.9985H174.915L182.751 41.4945L190.588 26.9985H196.132V53.9998H190.588V36.599L184.729 47.4376H180.811L174.915 36.599V53.9998H169.37Z"/>
        <path d="M212.852 26.9985H218.634L229.2 50.0758V53.9998H224.73L221.592 47.0471H209.799L206.737 53.9998H202.314V50.0758L212.852 26.9985ZM215.705 33.7988L212.291 41.4945H219.119L215.705 33.7988Z"/>
        <path d="M83.016 50.6473H82.7402L79.3926 53.9998H75.4648V50.0663L77.4144 48.1615C76.0847 46.4802 75.3938 44.3809 75.4648 42.2374C75.4539 41.044 75.6635 39.8589 76.083 38.7419C76.4387 37.7751 76.9817 36.8883 77.6807 36.1323C78.3484 35.4237 79.1589 34.8653 80.0583 34.4941C80.9852 34.1163 81.9773 33.9254 82.978 33.9322H96.4827V53.9998H90.8716V50.6473H83.016ZM90.8716 39.5039H83.0541C82.8645 39.5213 82.6802 39.5764 82.512 39.6658C81.943 39.917 81.4955 40.3823 81.2661 40.9611C81.0975 41.3682 81.0165 41.8063 81.0284 42.2469C80.9735 43.0048 81.2043 43.7558 81.6751 44.3518C81.8478 44.5624 82.0638 44.7335 82.3082 44.8535C82.5527 44.9734 82.82 45.0394 83.0921 45.047H90.8716V39.5039Z"/>
        <path d="M53.9143 23.1317V48.5805C53.9168 49.2929 53.7786 49.9988 53.5075 50.6574C53.2364 51.316 52.8379 51.9145 52.3349 52.4182C51.832 52.9219 51.2344 53.321 50.5767 53.5925C49.919 53.8639 49.2142 54.0024 48.5029 53.9999H31.7837C31.7589 54.0011 31.7344 53.9948 31.7133 53.9819C31.6921 53.969 31.6753 53.95 31.6651 53.9274C31.6548 53.9048 31.6516 53.8797 31.6558 53.8553C31.66 53.8308 31.6714 53.8082 31.6886 53.7903C33.7713 51.1616 35.1884 48.5805 40.4381 48.5805H45.2789C46.1324 48.5755 46.9496 48.2338 47.5531 47.6293C48.1566 47.0249 48.4979 46.2066 48.5029 45.3518V25.1698C48.503 24.5304 48.3614 23.8989 48.0884 23.3208C47.8154 22.7427 47.4178 22.2325 46.9242 21.8268L29.0066 7.08324C28.4271 6.60816 27.7013 6.34859 26.9524 6.34859C26.2035 6.34859 25.4777 6.60816 24.8982 7.08324L6.97111 21.8268C6.4775 22.2325 6.07988 22.7427 5.80689 23.3208C5.5339 23.8989 5.39233 24.5304 5.39239 25.1698V45.3518C5.39741 46.2099 5.74131 47.0311 6.34895 47.636C6.95659 48.241 7.7786 48.5806 8.63542 48.5805H13.4762C18.7259 48.5805 20.1335 51.1426 22.2257 53.7713C22.2429 53.7891 22.2543 53.8118 22.2585 53.8362C22.2627 53.8607 22.2595 53.8858 22.2492 53.9084C22.239 53.931 22.2222 53.9499 22.2011 53.9628C22.1799 53.9758 22.1554 53.982 22.1306 53.9808H5.39239C4.68425 53.9808 3.98305 53.8411 3.32881 53.5697C2.67458 53.2983 2.08013 52.9006 1.5794 52.3991C1.07867 51.8976 0.68147 51.3023 0.410477 50.6471C0.139485 49.9919 6.73012e-06 49.2897 6.73012e-06 48.5805V23.1317C-0.00125438 22.3336 0.174733 21.5453 0.515221 20.8238C0.855708 20.1023 1.35217 19.4657 1.96865 18.96L23.4906 1.24485C24.4689 0.439974 25.6958 0 26.9619 0C28.228 0 29.4549 0.439974 30.4332 1.24485L51.9457 18.96C52.5611 19.4666 53.0569 20.1034 53.3973 20.8247C53.7377 21.546 53.9142 22.3339 53.9143 23.1317Z"/>
        <path d="M37.7276 30.9511C37.6707 28.7496 36.9408 26.6185 35.6364 24.8456C34.332 23.0726 32.5159 21.743 30.4332 21.0363C30.1574 20.9411 29.8721 20.8649 29.5868 20.7887C29.3015 20.7125 28.9686 20.6458 28.6357 20.5982L28.0936 20.5315C27.3601 20.4553 26.6207 20.4553 25.8872 20.5315L25.3451 20.5982C25.0218 20.6458 24.7079 20.7125 24.3941 20.7887C24.0803 20.8649 23.8235 20.9411 23.5477 21.0363C21.4482 21.7274 19.6129 23.0505 18.2921 24.8249C16.9713 26.5994 16.2294 28.7388 16.1676 30.9511C16.1676 31.1416 16.1676 31.3321 16.1676 31.5225C16.1676 31.713 16.1676 31.713 16.1676 31.8083C16.2072 33.9508 16.868 36.0355 18.0697 37.8086L26.7146 49.2377C26.7404 49.2713 26.7735 49.2985 26.8114 49.3172C26.8494 49.3359 26.8911 49.3457 26.9334 49.3457C26.9757 49.3457 27.0174 49.3359 27.0553 49.3172C27.0932 49.2985 27.1264 49.2713 27.1521 49.2377L35.8066 37.8086C37.0082 36.0355 37.6691 33.9508 37.7086 31.8083C37.7086 31.713 37.7086 31.6178 37.7086 31.5225C37.7086 31.4273 37.7372 31.1416 37.7276 30.9511ZM32.3353 31.7226C32.3122 32.7933 31.9821 33.8347 31.3842 34.7227L31.0323 35.1894L27.076 40.4277C27.0626 40.4438 27.0459 40.4566 27.027 40.4655C27.0081 40.4743 26.9875 40.4789 26.9667 40.4789C26.9458 40.4789 26.9252 40.4743 26.9063 40.4655C26.8874 40.4566 26.8707 40.4438 26.8573 40.4277L22.8249 35.1513V35.0942L22.6062 34.7989L22.5491 34.7227C21.9468 33.8369 21.6162 32.7941 21.5981 31.7226C21.5933 31.675 21.5933 31.6272 21.5981 31.5797C21.5981 31.4844 21.5981 31.3892 21.5981 31.294C21.6259 30.1891 21.9934 29.1198 22.6503 28.2318C23.3073 27.3437 24.2218 26.6803 25.2691 26.3318L25.6875 26.208C25.8438 26.1662 26.0027 26.1343 26.163 26.1128H26.4293C26.6131 26.1033 26.7972 26.1033 26.9809 26.1128C27.1647 26.103 27.3488 26.103 27.5325 26.1128H27.8083C27.9656 26.1344 28.1212 26.1662 28.2743 26.208L28.7023 26.3318C29.7403 26.6902 30.6443 27.3573 31.2935 28.244C31.9427 29.1308 32.3061 30.1948 32.3353 31.294V31.7226Z"/>


    </symbol>


    <symbol viewBox="0 0 80 80" fill="none" id="quiz-thanks">
        
        <circle cx="40" cy="40" r="38.5" stroke="#1E90FF" stroke-width="3"/>
        <path fill-rule="evenodd" clip-rule="evenodd" d="M54.0721 29.5825C54.7032 30.2379 54.7032 31.3006 54.0721 31.956L36.2943 50.4175C35.6631 51.073 34.6399 51.073 34.0087 50.4175L25.9279 42.0259C25.2967 41.3705 25.2967 40.3078 25.9279 39.6524C26.559 38.997 27.5823 38.997 28.2135 39.6524L35.1515 46.8573L51.7865 29.5825C52.4176 28.9271 53.4409 28.9271 54.0721 29.5825Z" fill="#1E90FF"/>


    </symbol>
    
    <symbol viewBox="0 0 35 35" fill="none" id="quiz-inst">
        
        <path d="M22.0599 8.68402H12.8532C10.5493 8.68402 8.6748 10.5585 8.6748 12.8624V22.1536C8.6748 24.4575 10.5493 26.332 12.8532 26.332H22.0599C24.3638 26.332 26.2383 24.4575 26.2383 22.1536V12.8624C26.2383 10.5585 24.3638 8.68402 22.0599 8.68402ZM17.4741 23.0713C14.3512 23.0713 11.8106 20.5577 11.8106 17.4681C11.8106 14.3785 14.3515 11.8648 17.4741 11.8648C20.5967 11.8648 23.1377 14.3785 23.1377 17.4681C23.1377 20.5577 20.5971 23.0713 17.4741 23.0713ZM23.2385 12.9682C22.5025 12.9682 21.9059 12.3716 21.9059 11.6356C21.9059 10.8996 22.5025 10.303 23.2385 10.303C23.9745 10.303 24.5711 10.8996 24.5711 11.6356C24.5711 12.3716 23.9745 12.9682 23.2385 12.9682Z" fill="#CDCDCD"/>
        <path d="M17.5 0C7.83511 0 0 7.83511 0 17.5C0 27.1649 7.83511 35 17.5 35C27.1649 35 35 27.1649 35 17.5C35 7.83511 27.1649 0 17.5 0ZM28.3051 22.1536C28.3051 25.5974 25.5033 28.3988 22.0599 28.3988H12.8532C9.40937 28.3988 6.60793 25.597 6.60793 22.1536V12.8624C6.60793 9.4186 9.40973 6.61715 12.8532 6.61715H22.0599C25.5037 6.61715 28.3051 9.41895 28.3051 12.8624V22.1536Z" fill="#CDCDCD"/>
        <path d="M17.4742 13.9277C15.4886 13.9277 13.8735 15.5158 13.8735 17.4681C13.8735 19.4203 15.4886 21.0084 17.4742 21.0084C19.4598 21.0084 21.0748 19.4203 21.0748 17.4681C21.0748 15.5158 19.4598 13.9277 17.4742 13.9277Z" fill="#CDCDCD"/>


    </symbol>

    <symbol viewBox="0 0 35 35" fill="none" id="quiz-vk">
        <path d="M17.5 0C7.83511 0 0 7.83511 0 17.5C0 27.1649 7.83511 35 17.5 35C27.1649 35 35 27.1649 35 17.5C35 7.83511 27.1649 0 17.5 0ZM25.0888 19.8131C25.2265 19.9835 25.5541 20.3153 26.0722 20.8093H26.0843L26.0963 20.821L26.1084 20.8334L26.1329 20.8575C27.2742 21.9179 28.0471 22.8126 28.452 23.5412C28.4765 23.5813 28.5028 23.6324 28.5312 23.6931C28.5592 23.7538 28.5876 23.8609 28.616 24.0146C28.644 24.169 28.6419 24.306 28.61 24.4273C28.5777 24.5483 28.4765 24.6605 28.3065 24.7613C28.1366 24.8628 27.8977 24.9132 27.59 24.9132L24.4816 24.9621C24.2875 25.0026 24.0607 24.9824 23.8017 24.9014C23.5422 24.8202 23.3322 24.7311 23.1703 24.6342L22.9272 24.488C22.6841 24.318 22.4009 24.059 22.0773 23.7112C21.7533 23.363 21.4761 23.0493 21.2454 22.77C21.0148 22.4907 20.7678 22.2565 20.5044 22.0656C20.2411 21.8754 20.0126 21.8125 19.8185 21.8775C19.7943 21.886 19.7617 21.9002 19.7212 21.9201C19.6804 21.9403 19.6119 21.9985 19.5147 22.0961C19.4174 22.1933 19.3305 22.3129 19.2535 22.4542C19.1765 22.5961 19.1076 22.8066 19.0469 23.0859C18.9863 23.3648 18.9596 23.6789 18.9682 24.027C18.9682 24.148 18.9536 24.2598 18.9256 24.361C18.8972 24.4621 18.8667 24.537 18.8344 24.5852L18.7857 24.6459C18.6399 24.8003 18.4255 24.889 18.1423 24.9132H16.7459C16.171 24.9458 15.5801 24.8791 14.9732 24.713C14.3664 24.5466 13.8337 24.3326 13.3766 24.0692C12.9188 23.8066 12.5022 23.5394 12.126 23.2683C11.7495 22.9968 11.4641 22.7643 11.27 22.5702L10.9666 22.2785C10.8857 22.1979 10.7743 22.0762 10.6327 21.914C10.4911 21.7522 10.2018 21.3842 9.76461 20.8093C9.32739 20.2344 8.89834 19.6236 8.47745 18.9756C8.05656 18.3279 7.56079 17.4737 6.98978 16.4133C6.41913 15.3533 5.89106 14.2525 5.40523 13.1108C5.35661 12.9816 5.33212 12.8723 5.33212 12.7832C5.33212 12.6945 5.34419 12.6296 5.36867 12.5888L5.41729 12.516C5.53866 12.362 5.76934 12.285 6.10931 12.285L9.43634 12.2609C9.53358 12.2772 9.62656 12.3034 9.71564 12.34C9.80471 12.3762 9.86966 12.4106 9.91011 12.4429L9.9708 12.4795C10.1003 12.5689 10.1972 12.6981 10.2622 12.8681C10.424 13.2733 10.6103 13.6921 10.8207 14.1251C11.0312 14.558 11.1973 14.8881 11.3186 15.1145L11.5128 15.4669C11.7473 15.9524 11.9741 16.3736 12.1927 16.7295C12.4117 17.0859 12.6076 17.3634 12.7818 17.5614C12.9557 17.7598 13.1236 17.9159 13.2858 18.0288C13.4476 18.1423 13.5853 18.1991 13.6988 18.1991C13.8121 18.1991 13.9214 18.1789 14.0268 18.1384C14.0427 18.1303 14.063 18.11 14.0874 18.0777C14.1119 18.0455 14.1602 17.9564 14.2333 17.8102C14.3061 17.6647 14.3607 17.4744 14.3973 17.2395C14.4338 17.0053 14.4721 16.6774 14.5126 16.2565C14.5531 15.8352 14.5531 15.3295 14.5126 14.7387C14.4963 14.4146 14.4597 14.1194 14.4033 13.8522C14.3465 13.5853 14.2897 13.399 14.2333 13.2936L14.1602 13.1481C13.9579 12.873 13.614 12.6988 13.1282 12.6257C13.0228 12.6101 13.043 12.5128 13.1889 12.3347C13.3266 12.1807 13.4802 12.0596 13.6502 11.9702C14.0793 11.7601 15.0467 11.6629 16.5525 11.6785C17.2161 11.687 17.7626 11.7392 18.1917 11.8364C18.3535 11.8772 18.4891 11.9315 18.5984 12.0004C18.7077 12.0689 18.7907 12.1665 18.8475 12.2914C18.9039 12.417 18.9465 12.5465 18.9749 12.68C19.0033 12.8138 19.0175 12.9983 19.0175 13.2325C19.0175 13.4675 19.0136 13.6903 19.0054 13.9004C18.9973 14.1109 18.9873 14.3965 18.9753 14.7564C18.9632 15.1166 18.9568 15.4509 18.9568 15.7582C18.9568 15.8477 18.9529 16.0173 18.9447 16.2682C18.9366 16.5195 18.9341 16.7136 18.9387 16.8509C18.9426 16.9886 18.9568 17.1529 18.9809 17.3428C19.0054 17.533 19.0519 17.6913 19.1208 17.8162C19.1892 17.9418 19.2804 18.0408 19.394 18.1136C19.4586 18.1303 19.5274 18.1462 19.6006 18.1626C19.6733 18.1785 19.7783 18.1345 19.916 18.0288C20.0534 17.9237 20.2074 17.7839 20.3774 17.61C20.5474 17.4365 20.7578 17.1653 21.0087 16.7966C21.2593 16.429 21.5347 15.9935 21.8342 15.4914C22.32 14.6496 22.753 13.7386 23.1334 12.7591C23.1657 12.6778 23.2062 12.6072 23.2548 12.5465C23.3034 12.4855 23.3478 12.4429 23.3882 12.4188L23.4368 12.3822C23.4528 12.3741 23.473 12.3641 23.4975 12.3521C23.522 12.3404 23.5745 12.3279 23.6554 12.3155C23.7364 12.3038 23.8173 12.3017 23.8985 12.3098L27.3956 12.285C27.7111 12.2449 27.9701 12.2548 28.1724 12.3152C28.3747 12.3758 28.5003 12.4429 28.5489 12.5157L28.622 12.637C28.808 13.1555 28.2011 14.3447 26.8008 16.2068C26.6063 16.4662 26.343 16.8105 26.0115 17.2392C25.3802 18.049 25.0161 18.5792 24.9195 18.8308C24.7811 19.1619 24.8379 19.4898 25.0888 19.8131Z" fill="#CDCDCD"/>
    </symbol>

    <symbol viewBox="0 0 35 35" fill="none" id="quiz-ut">
        
        <path d="M15.5142 20.0608L20.9336 17.1859L15.5142 14.3692V20.0608Z" fill="#CDCDCD"/>
        <path d="M17.5 0C7.83511 0 0 7.83511 0 17.5C0 27.1649 7.83511 35 17.5 35C27.1649 35 35 27.1649 35 17.5C35 7.83511 27.1649 0 17.5 0ZM27.271 21.5758C27.0378 23.0521 26.3242 23.8538 24.8234 24.0235C23.1462 24.213 19.3752 24.3003 17.6991 24.3003C15.9648 24.3003 12.4571 24.2275 10.7061 24.0817C9.20106 23.9564 8.17402 23.1157 7.96713 21.6195C7.81666 20.53 7.71942 19.235 7.71942 17.176C7.71942 14.8838 7.80211 13.9139 7.99623 12.8784C8.27339 11.4006 8.9789 10.6848 10.5894 10.5184C12.2793 10.3434 13.877 10.2561 17.4514 10.2561C19.1988 10.2561 22.9663 10.3466 24.7066 10.5038C26.2266 10.6412 27.0829 11.571 27.2706 13.0533C27.4016 14.0878 27.5184 15.5687 27.5184 17.1618C27.5187 19.9586 27.271 21.5758 27.271 21.5758Z" fill="#CDCDCD"/>
    </symbol>
    <symbol viewBox="0 0 22 16" fill="none" id="quiz-email">
    
        <path d="M21.2143 0.142883H0.785729C0.351776 0.142883 0 0.494659 0 0.928566V15.0714C0 15.5054 0.351776 15.8571 0.785729 15.8571H21.2143C21.6482 15.8571 22 15.5054 22 15.0714V0.928566C22 0.494659 21.6482 0.142883 21.2143 0.142883ZM19.9257 1.7143L11 8.57988L2.07428 1.7143H19.9257ZM20.4285 14.2857H1.57141V3.31006L10.5215 10.1945C10.8037 10.4112 11.1963 10.4112 11.4785 10.1945L20.4285 3.31006V14.2857Z" fill="#373737"/>


    </symbol>

    <symbol viewBox="0 0 22 22" fill="none" id="quiz-whatsapp">
    
        <path fill-rule="evenodd" clip-rule="evenodd" d="M11.0461 21.811H11.0416C9.20824 21.8103 7.40684 21.3526 5.80685 20.4841L0 22L1.55401 16.351C0.595399 14.6977 0.0910333 12.8222 0.0918009 10.9009C0.0942571 4.89016 5.0082 0 11.0459 0C13.9763 0.00126042 16.7266 1.13655 18.7947 3.19722C20.8629 5.25774 22.0012 7.99667 22 10.9095C21.9976 16.9188 17.0856 21.8086 11.0461 21.811ZM6.07596 18.5105L6.40839 18.7069C7.80628 19.5324 9.40865 19.9693 11.0424 19.9699H11.0461C16.0642 19.9699 20.1485 15.9051 20.1505 10.9088C20.1515 8.48777 19.2054 6.21123 17.4864 4.49851C15.7675 2.78579 13.4815 1.84216 11.0496 1.84132C6.02761 1.84132 1.94332 5.90575 1.94132 10.9015C1.94063 12.6136 2.42197 14.281 3.3333 15.7236L3.54983 16.0665L2.63006 19.4101L6.07596 18.5105ZM16.1898 13.2566C16.3807 13.3484 16.5096 13.4104 16.5646 13.5019C16.633 13.6155 16.633 14.1608 16.4051 14.7972C16.1769 15.4334 15.0834 16.0142 14.5575 16.0924C14.086 16.1625 13.4892 16.1918 12.8336 15.9844C12.4361 15.8589 11.9263 15.6913 11.2733 15.4106C8.7074 14.308 6.97332 11.8329 6.64557 11.3652C6.62262 11.3324 6.60658 11.3095 6.5976 11.2976L6.59545 11.2947C6.45061 11.1023 5.48002 9.81358 5.48002 8.47975C5.48002 7.22506 6.09929 6.56743 6.38437 6.2647C6.40394 6.24392 6.4219 6.22483 6.43794 6.20741C6.68886 5.9347 6.98537 5.86649 7.16782 5.86649C7.35027 5.86649 7.53295 5.86817 7.69245 5.87611C7.7121 5.8771 7.73259 5.87703 7.7537 5.87688C7.9132 5.87596 8.11208 5.87481 8.30827 6.34377C8.38372 6.5242 8.49417 6.79179 8.61061 7.07397C8.8461 7.64459 9.10638 8.27503 9.15213 8.36632C9.2206 8.50267 9.26619 8.66164 9.17492 8.84352C9.16126 8.87079 9.1486 8.89653 9.13647 8.92113C9.06793 9.06031 9.01757 9.16275 8.90121 9.29788C8.85554 9.35105 8.80826 9.40834 8.76098 9.46563C8.6668 9.57976 8.57269 9.69388 8.49072 9.77516C8.35363 9.91098 8.21102 10.0583 8.37067 10.331C8.53032 10.6038 9.07967 11.4957 9.89329 12.218C10.768 12.9944 11.5282 13.3226 11.9135 13.489C11.9887 13.5214 12.0497 13.5478 12.0944 13.57C12.368 13.7064 12.5276 13.6836 12.6874 13.5019C12.847 13.3201 13.3716 12.7064 13.554 12.4338C13.7364 12.1612 13.9189 12.2066 14.1698 12.2974C14.4208 12.3884 15.7664 13.0474 16.0401 13.1836C16.0935 13.2103 16.1435 13.2344 16.1898 13.2566Z" fill="white"/>
    </symbol>


</svg>